<?xml version="1.0" standalone="no"?>
<!DOCTYPE svg PUBLIC "-//W3C//DTD SVG 20010904//EN"
 "http://www.w3.org/TR/2001/REC-SVG-20010904/DTD/svg10.dtd">
<svg version="1.0" xmlns="http://www.w3.org/2000/svg"
 width="1024.000000pt" height="1024.000000pt" viewBox="0 0 1024.000000 1024.000000"
 preserveAspectRatio="xMidYMid meet">

<g transform="translate(0.000000,1024.000000) scale(0.100000,-0.100000)"
fill="#000000" stroke="none">
<path d="M0 5120 l0 -5120 5120 0 5120 0 0 5120 0 5120 -5120 0 -5120 0 0
-5120z m5865 4480 c198 -17 215 -20 215 -41 0 -10 -13 -152 -30 -316 -16 -164
-41 -435 -55 -603 -32 -386 -34 -400 -54 -408 -22 -8 -32 -24 -26 -43 3 -10
-3 -20 -17 -27 -13 -6 -17 -11 -10 -11 10 -1 9 -9 -2 -35 -13 -32 -13 -34 2
-29 15 6 15 4 4 -10 -8 -9 -10 -22 -6 -28 5 -9 2 -10 -9 -6 -22 8 -21 3 1 -19
16 -17 16 -17 -8 -11 -21 5 -22 4 -10 -6 17 -13 15 -42 -5 -71 -8 -10 -11 -24
-9 -31 4 -9 -2 -11 -19 -8 -14 3 -77 57 -146 127 l-122 123 16 354 c9 195 19
361 22 369 3 8 5 23 4 34 -2 12 1 16 10 11 8 -5 10 -4 5 4 -15 23 -17 64 -4
72 11 7 11 9 0 9 -9 0 -11 7 -7 22 4 11 7 39 7 61 -1 22 6 53 14 70 9 16 13
31 10 35 -3 3 -6 -1 -6 -9 -1 -10 -3 -9 -11 3 -5 10 -6 30 -3 45 4 15 8 89 9
163 1 74 3 157 3 183 l2 48 58 -6 c31 -3 111 -10 177 -15z m-871 -42 c3 -24
15 -160 26 -303 11 -143 25 -312 30 -375 13 -141 38 -487 47 -632 l6 -106
-114 -126 c-62 -69 -120 -128 -128 -131 -9 -4 -58 -12 -111 -20 -111 -16 -281
-45 -295 -50 -5 -2 17 -3 50 -3 105 0 260 -61 333 -131 12 -12 22 -26 22 -32
0 -7 15 -8 43 -3 40 7 176 13 377 17 75 2 105 -2 137 -16 37 -17 43 -18 64 -4
13 9 51 21 84 28 51 10 71 9 135 -5 41 -10 95 -16 120 -15 80 5 144 4 180 -2
32 -6 37 -4 60 27 33 45 143 99 242 119 150 30 189 19 283 -80 56 -58 79 -76
115 -85 97 -25 142 -76 187 -214 31 -95 38 -170 20 -227 l-14 -45 60 -54 59
-54 77 13 c42 7 144 31 227 52 84 21 155 39 158 39 12 0 5 -24 -39 -124 -25
-57 -45 -112 -45 -123 0 -27 196 -213 315 -300 114 -82 211 -172 279 -257 52
-65 111 -181 121 -239 8 -42 10 -43 83 -73 140 -58 246 -149 306 -264 20 -38
41 -72 46 -75 23 -14 52 -92 61 -163 27 -219 21 -290 -35 -399 l-24 -48 54
-101 c30 -55 63 -127 74 -160 80 -231 94 -510 45 -871 -25 -188 -26 -209 -15
-302 12 -99 12 -100 57 -141 61 -58 93 -109 113 -182 l17 -62 83 -49 c223
-132 321 -313 322 -597 1 -126 -17 -204 -71 -315 -45 -90 -92 -140 -168 -180
-55 -28 -201 -62 -227 -52 -28 11 -17 22 31 35 177 48 252 103 317 235 55 111
66 156 65 267 0 239 -80 411 -243 523 -33 23 -85 56 -116 72 -53 29 -55 32
-61 80 -9 70 -31 109 -110 191 -53 55 -67 76 -62 92 3 12 0 57 -6 100 -10 66
-8 97 8 212 39 264 44 329 38 493 -5 178 -30 331 -73 443 -33 88 -47 115 -104
199 l-47 70 24 35 c72 103 91 194 68 315 -8 43 -12 81 -10 86 3 4 2 27 -1 51
-5 33 -17 53 -50 85 -32 31 -44 51 -44 71 0 52 -97 160 -194 217 -26 15 -79
38 -119 50 l-72 23 -8 53 c-15 106 -82 213 -210 340 -84 84 -179 161 -263 215
-32 21 -77 58 -99 83 -41 46 -111 114 -155 149 l-25 20 21 39 c29 52 68 153
62 158 -3 3 -24 -1 -47 -10 -41 -14 -119 -30 -291 -61 l-85 -15 -14 23 c-8 13
-43 51 -77 86 l-63 63 25 36 c36 54 36 117 -3 234 -34 104 -68 143 -141 164
-48 14 -67 27 -122 85 -84 88 -116 104 -195 98 -65 -6 -165 -41 -220 -79 -19
-13 -46 -43 -61 -67 -18 -28 -33 -41 -43 -38 -84 24 -114 28 -198 22 -72 -6
-102 -4 -143 10 -63 21 -147 15 -207 -15 -52 -26 -54 -26 -106 1 -51 26 -164
29 -215 6 -25 -11 -45 -13 -75 -7 -67 13 -160 10 -213 -6 -45 -14 -50 -14 -59
2 -60 100 -226 182 -345 171 -57 -6 -104 -37 -147 -98 -19 -27 -46 -49 -83
-66 -30 -14 -71 -33 -90 -42 -96 -47 -167 -278 -115 -375 l20 -37 -40 -32
c-44 -36 -66 -58 -106 -105 l-27 -31 -123 24 c-68 13 -163 33 -210 44 -48 11
-90 20 -94 20 -12 0 4 -49 40 -128 l34 -73 -37 -31 c-20 -18 -71 -66 -112
-108 -41 -43 -104 -94 -139 -115 -35 -21 -98 -65 -140 -98 -205 -161 -307
-298 -333 -446 -12 -69 -12 -69 -52 -82 -161 -50 -316 -189 -316 -284 0 -14
-4 -25 -10 -25 -5 0 -25 -21 -45 -46 -28 -37 -35 -56 -35 -91 0 -24 -5 -75
-11 -112 -15 -91 -1 -174 47 -268 l37 -73 -29 -36 c-61 -77 -77 -101 -110
-169 -42 -87 -79 -231 -100 -389 -24 -183 -10 -420 42 -684 11 -55 15 -116 12
-181 l-4 -99 -81 -79 c-69 -66 -83 -86 -97 -132 -9 -30 -16 -64 -16 -76 0 -15
-13 -29 -43 -45 -135 -75 -246 -175 -294 -267 -52 -96 -67 -170 -67 -328 l-1
-140 46 -95 c58 -120 111 -181 193 -220 83 -39 161 -56 182 -39 19 16 26 7 18
-25 -5 -22 -12 -26 -43 -26 -53 0 -155 27 -209 54 -88 45 -172 157 -219 293
-24 69 -27 93 -27 208 -1 144 13 213 65 324 37 81 163 207 264 267 52 30 72
48 79 70 35 117 74 177 150 232 l43 31 7 86 c4 60 2 105 -8 148 -8 34 -25 139
-37 232 -58 437 -1 784 170 1035 l38 55 -19 43 c-41 99 -51 160 -44 292 8 149
17 190 56 233 16 18 37 56 48 85 45 117 162 222 304 272 l52 18 14 69 c7 37
27 94 44 125 65 123 236 290 404 394 43 27 126 96 185 153 l108 104 -26 66
c-57 148 -72 189 -67 194 3 3 38 -4 77 -15 40 -11 147 -37 239 -59 l166 -39
52 50 c28 27 55 50 60 50 5 0 7 34 3 79 -6 87 2 136 44 243 31 81 87 141 152
163 25 9 60 23 76 31 32 16 112 124 92 124 -7 1 -84 51 -171 113 -111 78 -162
120 -167 137 -4 14 -19 79 -33 145 -49 233 -128 593 -178 810 -85 373 -91 402
-85 417 3 10 65 26 189 51 102 20 194 37 206 37 17 0 22 -8 27 -37 9 -55 63
-342 85 -458 11 -55 42 -233 69 -395 28 -162 55 -319 61 -348 l12 -53 41 6
c23 3 95 15 160 27 l117 21 0 45 c0 25 -5 84 -10 131 -52 446 -76 644 -114
941 -14 107 -22 198 -18 202 8 8 265 32 384 37 l67 2 5 -43z m1774 -99 c109
-21 166 -37 169 -46 3 -8 -11 -87 -31 -176 -53 -237 -140 -676 -191 -961 -25
-137 -48 -253 -52 -257 -42 -37 -181 -119 -202 -118 -26 2 -26 2 2 6 19 3 27
10 25 21 -2 11 3 17 15 16 9 -1 17 4 17 12 0 8 0 17 0 21 0 4 -9 7 -20 7 -11
0 -20 -4 -19 -9 1 -13 -35 -24 -42 -13 -3 5 -12 2 -19 -7 -12 -14 -10 -15 17
-10 22 3 33 1 37 -10 4 -12 -3 -14 -39 -10 -48 4 -50 3 -35 -25 7 -13 6 -19
-4 -23 -8 -3 -18 5 -24 18 -9 20 -8 27 9 38 13 9 17 21 13 33 -5 16 -4 16 5 4
8 -12 11 -12 11 -1 0 9 8 11 24 7 15 -4 26 -1 29 7 6 17 -3 38 -14 31 -13 -8
-11 10 3 24 9 9 9 12 -1 12 -20 0 -41 -27 -36 -47 3 -11 1 -9 -6 5 -7 12 -18
22 -26 22 -7 0 -13 5 -13 10 0 14 17 13 26 -1 4 -8 10 -5 17 7 19 33 16 41
-14 38 -27 -3 -28 -2 -16 17 9 15 13 16 15 5 2 -8 9 -13 17 -10 17 7 -21 50
-50 56 -13 2 -19 10 -17 22 2 11 -1 15 -7 11 -6 -3 -11 -1 -11 4 0 6 4 11 9
11 8 0 13 22 26 110 19 128 185 1141 192 1168 4 18 11 22 27 18 11 -2 95 -19
184 -37z m582 -170 c91 -28 168 -54 172 -57 3 -4 36 -137 73 -297 36 -159 88
-387 115 -505 28 -118 50 -218 50 -222 0 -22 18 -3 32 35 9 23 56 148 106 277
144 379 186 482 201 488 17 6 381 -176 388 -195 6 -15 -5 -44 -102 -278 -79
-190 -312 -770 -449 -1117 -66 -168 -102 -248 -112 -248 -9 0 -79 34 -157 75
l-142 74 -24 188 c-24 195 -92 654 -112 756 -7 32 -15 55 -19 50 -14 -14 -184
-570 -230 -750 -6 -24 -16 -43 -22 -43 -13 0 -356 108 -369 116 -9 5 -4 38 22
139 11 39 93 363 183 720 180 711 215 845 225 845 4 0 81 -23 171 -51z m-4090
-121 c41 -16 118 -45 170 -64 52 -20 103 -43 112 -52 16 -17 65 -167 144 -439
l38 -133 -49 -72 c-27 -40 -74 -99 -104 -130 l-54 -58 45 -52 c25 -29 142
-152 260 -273 119 -121 215 -224 214 -230 0 -5 -84 -43 -185 -83 l-184 -73
-24 23 c-44 41 -199 201 -249 258 -197 220 -202 224 -244 215 -60 -13 -63 -26
-20 -122 52 -120 79 -180 161 -355 80 -170 81 -155 -16 -211 -33 -19 -104 -60
-158 -92 -54 -31 -99 -56 -101 -54 -9 10 -78 155 -114 239 -22 52 -64 145 -92
205 -29 61 -78 169 -110 240 -162 365 -241 538 -326 722 -52 111 -94 205 -94
208 0 3 138 74 308 157 468 230 554 269 577 262 11 -4 54 -20 95 -36z m2165
-822 c9 -48 29 -147 46 -218 16 -72 29 -137 29 -146 0 -13 -18 -14 -136 -9
-75 3 -138 8 -141 10 -2 3 26 94 62 204 74 218 83 244 98 288 l11 29 8 -34 c4
-19 15 -75 23 -124z m-3481 -62 l189 -29 22 -35 c12 -19 63 -111 113 -205 l91
-170 -15 -54 c-19 -64 -20 -64 85 -81 42 -7 83 -16 93 -21 14 -8 81 -121 167
-285 30 -56 32 -68 27 -125 -2 -35 -5 -123 -5 -195 l-1 -132 -117 -98 c-237
-200 -481 -410 -578 -497 -55 -49 -115 -101 -133 -115 -32 -24 -33 -24 -47 -6
-8 10 -116 170 -239 354 -206 307 -306 456 -610 903 -59 87 -106 162 -104 166
6 15 693 577 788 644 16 12 36 17 55 14 17 -3 115 -18 219 -33z m7296 2 c19
-18 163 -140 320 -271 157 -130 288 -242 291 -249 4 -6 3 -58 -2 -116 -5 -58
-12 -148 -17 -200 -7 -94 -7 -95 -32 -92 -30 5 -399 149 -416 163 -9 8 -9 24
2 71 8 34 11 65 7 69 -4 4 -67 54 -140 112 -132 105 -167 127 -184 110 -16
-16 -129 -225 -129 -238 0 -15 85 -88 326 -283 140 -113 152 -126 156 -160 2
-20 15 -95 28 -166 l25 -129 -33 -61 c-133 -246 -238 -427 -251 -431 -23 -7
-326 -35 -378 -35 -50 0 -46 -3 -298 205 -87 72 -194 158 -239 193 -44 35 -93
75 -107 88 l-26 25 4 152 c6 280 13 357 30 357 20 0 281 -139 407 -216 15 -9
16 -17 6 -76 -5 -36 -8 -72 -5 -80 3 -7 27 -29 53 -48 26 -19 91 -70 145 -112
54 -43 102 -78 107 -78 16 0 170 245 170 270 0 4 -55 52 -122 107 -97 77 -308
253 -351 292 -9 9 -66 240 -68 278 -2 30 230 509 256 529 8 6 94 18 192 28 98
10 187 19 198 20 11 2 24 4 30 5 5 0 25 -14 45 -33z m-2850 -156 c0 -5 -4 -10
-9 -10 -6 0 -13 5 -16 10 -3 6 1 10 9 10 9 0 16 -4 16 -10z m-30 -10 c13 -8
13 -11 1 -19 -7 -5 -11 -14 -7 -20 5 -7 1 -9 -8 -5 -19 7 -21 20 -3 27 9 4 8
8 -3 16 -19 13 0 14 20 1z m-59 -43 c-10 -9 -11 -8 -5 6 3 10 9 15 12 12 3 -3
0 -11 -7 -18z m49 -37 c0 -5 -5 -10 -11 -10 -5 0 -7 5 -4 10 3 6 8 10 11 10 2
0 4 -4 4 -10z m30 -51 c-7 -11 -14 -18 -17 -15 -3 3 0 12 7 21 18 21 23 19 10
-6z m140 -16 c0 -1 -8 -7 -18 -12 -13 -7 -19 -6 -19 2 0 7 9 13 19 13 10 0 18
-1 18 -3z m-645 -43 c3 -5 1 -10 -4 -10 -6 0 -11 5 -11 10 0 6 2 10 4 10 3 0
8 -4 11 -10z m552 -42 c-3 -8 -6 -5 -6 6 -1 11 2 17 5 13 3 -3 4 -12 1 -19z
m-39 -44 c7 4 12 3 12 -2 0 -11 -49 -26 -58 -17 -3 3 3 5 13 5 15 0 16 3 7 12
-7 7 -12 16 -12 22 0 5 6 2 13 -9 8 -10 19 -15 25 -11z m-1801 -183 c96 -46
173 -135 173 -201 0 -12 -11 -32 -25 -46 -14 -14 -25 -27 -25 -29 0 -14 61 22
95 55 86 84 184 93 366 34 63 -20 153 -56 200 -80 l86 -44 114 54 c272 129
424 140 540 38 39 -33 72 -52 91 -52 8 0 4 7 -8 18 -35 27 -45 55 -34 93 21
73 162 174 259 186 l51 6 62 -62 c40 -39 78 -67 107 -77 105 -37 99 -32 110
-88 18 -85 28 -176 23 -202 -6 -31 -47 -64 -81 -64 -44 0 -126 47 -156 89 -27
40 -55 118 -55 155 0 39 -21 96 -45 123 l-24 28 6 -38 c5 -35 2 -42 -33 -78
-36 -37 -38 -42 -37 -100 2 -70 24 -121 119 -286 59 -102 101 -202 117 -278 5
-22 0 -17 -18 20 -15 29 -25 42 -25 30 0 -38 69 -187 131 -282 34 -53 70 -123
81 -155 22 -74 23 -90 1 -58 -19 28 -88 108 -81 94 2 -5 16 -34 31 -65 53
-110 97 -368 97 -566 -1 -89 -2 -96 -15 -72 -7 14 -21 74 -30 135 -17 114 -38
206 -57 252 -14 31 -86 142 -94 142 -2 0 7 -22 21 -49 24 -48 70 -229 61 -238
-3 -3 -10 15 -16 38 -18 71 -20 68 -14 -18 l6 -81 -88 85 c-77 74 -304 237
-394 282 -34 17 64 -69 169 -150 64 -48 114 -100 194 -200 148 -184 248 -321
293 -404 37 -66 39 -75 39 -155 0 -64 -5 -96 -20 -129 l-20 -43 0 113 c0 95
-4 124 -23 171 -42 104 -118 208 -246 333 -78 76 -145 155 -186 215 -68 100
-121 158 -257 280 -116 104 -92 110 74 21 121 -66 229 -107 255 -99 6 2 -5 14
-25 27 -42 26 -45 36 -17 51 11 6 20 15 20 21 0 5 -13 3 -30 -6 -16 -8 -39
-15 -51 -15 -20 0 -19 3 15 38 53 52 88 126 90 187 1 55 8 64 46 65 23 1 24 2
7 14 -9 7 -36 16 -58 20 -39 6 -39 7 -24 28 31 45 12 146 -52 271 -43 86 -97
145 -165 182 l-53 28 43 -47 c48 -52 76 -110 116 -234 31 -100 33 -142 5 -198
-17 -36 -76 -90 -87 -80 -1 2 6 19 16 37 11 19 23 47 26 63 6 25 0 20 -37 -30
-25 -32 -69 -79 -99 -103 -60 -49 -166 -101 -206 -101 -22 0 -110 32 -211 77
-9 4 -12 2 -7 -5 9 -16 79 -52 131 -68 27 -9 33 -13 17 -13 -12 -1 -69 14
-127 33 -57 19 -130 40 -162 46 -99 21 -258 -1 -427 -60 -33 -11 -61 -18 -63
-16 -4 4 176 92 232 113 59 22 245 22 314 0 46 -14 51 -15 40 -1 -7 8 -31 25
-53 37 -35 19 -57 22 -146 22 -118 0 -138 -6 -245 -72 -84 -52 -212 -103 -257
-103 l-33 1 25 14 c25 14 25 14 -13 15 -73 0 -192 84 -269 190 -35 48 -40 51
-34 25 4 -16 16 -47 26 -67 11 -21 16 -38 11 -38 -19 0 -63 44 -83 83 -27 53
-21 128 20 248 35 101 45 121 86 173 l30 39 -29 -18 c-17 -10 -52 -39 -79 -64
-80 -76 -157 -267 -143 -356 4 -27 1 -34 -25 -49 -38 -23 -29 -32 11 -11 48
25 37 -2 -14 -33 -25 -15 -45 -30 -45 -33 0 -4 19 -5 41 -2 l42 6 -7 -51 c-8
-60 11 -107 71 -172 29 -33 32 -40 16 -40 -10 0 -35 11 -56 25 -42 29 -49 20
-12 -15 14 -13 25 -26 25 -30 0 -3 -18 -16 -40 -29 -22 -12 -40 -24 -40 -26 0
-1 35 5 78 14 69 15 175 63 298 136 20 12 37 16 50 11 18 -7 17 -10 -10 -29
-16 -12 -47 -37 -68 -56 -21 -18 -38 -30 -38 -27 0 11 -62 -24 -205 -119 -95
-62 -162 -115 -207 -163 l-67 -71 -5 42 c-3 23 -7 53 -9 67 -1 14 -7 -9 -12
-50 l-10 -75 -3 69 c-3 79 9 148 42 229 34 81 5 53 -38 -37 -46 -96 -54 -130
-71 -279 -9 -79 -22 -141 -33 -164 l-19 -36 -6 65 c-17 180 34 499 99 631 23
46 24 50 5 32 -11 -11 -34 -45 -50 -75 -17 -30 -31 -47 -31 -37 0 40 45 147
97 230 59 92 150 307 184 435 12 45 44 118 76 174 93 165 101 227 35 300 -30
34 -34 43 -29 78 3 22 1 40 -4 40 -18 0 -39 -49 -62 -141 -29 -118 -50 -161
-95 -200 -106 -93 -212 -73 -212 39 0 53 26 196 41 223 5 10 39 26 77 38 57
17 77 29 115 70 26 28 55 54 64 60 33 19 96 12 160 -18z m805 -153 l59 -31 62
31 c68 35 125 40 187 17 31 -11 32 -14 15 -20 -75 -26 -123 -49 -184 -89 l-70
-45 -68 45 c-65 42 -158 84 -188 84 -25 0 -17 18 13 28 54 20 111 14 174 -20z
m-1112 -455 c-25 -21 -73 -64 -107 -96 -56 -54 -63 -58 -84 -46 -50 26 -52 35
-18 73 41 48 59 46 24 -1 -19 -26 -7 -17 38 27 67 67 72 69 177 78 8 1 -5 -15
-30 -35z m2370 27 c46 0 51 -3 119 -69 39 -38 71 -73 71 -78 0 -5 -17 -13 -38
-19 l-39 -10 -98 95 c-55 52 -91 92 -81 88 10 -4 39 -7 66 -7z m-2859 -134
c110 -26 314 -89 339 -105 12 -8 12 -17 -4 -68 -31 -100 -70 -155 -141 -199
-29 -18 -29 -17 8 24 41 46 50 85 18 80 -34 -5 -357 223 -424 300 l-19 21 59
-14 c32 -8 106 -25 164 -39z m602 22 c-7 -39 -52 -159 -64 -172 -23 -25 3 69
45 167 20 46 28 48 19 5z m2835 -42 c-100 -94 -299 -246 -331 -253 -15 -3 -29
-9 -32 -13 -3 -4 10 -27 27 -51 19 -27 24 -38 12 -30 -49 38 -78 70 -99 111
-24 48 -59 150 -54 154 27 20 476 143 529 145 8 0 -15 -28 -52 -63z m142 -291
c25 -26 105 -92 178 -147 228 -171 338 -296 384 -437 17 -55 21 -89 20 -205 0
-76 -6 -180 -13 -232 l-11 -93 -53 -16 c-29 -8 -75 -31 -104 -50 -28 -19 -53
-35 -56 -35 -2 0 0 12 6 28 6 15 12 70 14 122 l4 95 -17 -65 -17 -65 -5 70
c-5 67 -5 68 -13 31 -18 -82 -122 -310 -168 -366 l-21 -25 21 40 c29 57 91
197 91 204 0 3 -10 -11 -23 -31 -70 -118 -122 -197 -125 -190 -1 5 8 31 22 58
40 82 41 104 2 47 -38 -55 -116 -136 -124 -128 -3 2 11 22 31 44 62 69 62 88
0 25 -44 -45 -76 -67 -118 -83 -59 -22 -85 -22 -43 0 35 18 160 120 154 126
-3 3 -23 -9 -45 -26 -37 -30 -108 -61 -138 -61 -11 0 -11 4 -2 21 10 20 9 21
-15 15 -31 -8 -31 -15 -6 109 11 55 23 162 27 237 5 109 9 138 21 143 8 3 51
29 94 57 58 39 78 58 78 74 0 12 7 27 15 34 8 7 15 16 15 21 0 18 -83 68 -158
95 -42 15 -78 28 -80 30 -2 1 -10 33 -17 71 -8 37 -36 137 -61 221 l-47 153
25 27 c14 15 51 62 83 104 l57 78 47 -39 c25 -22 66 -60 91 -86z m-3657 18
c40 -54 76 -103 80 -110 4 -7 -10 -68 -32 -135 -22 -68 -45 -152 -52 -188 -21
-115 -20 -113 -85 -136 -74 -26 -156 -68 -173 -88 -10 -12 -10 -19 3 -38 9
-12 16 -29 16 -38 1 -17 62 -66 131 -105 l46 -25 7 -98 c7 -90 48 -338 62
-376 5 -12 0 -16 -20 -16 -16 0 -26 -6 -26 -14 0 -28 -84 7 -139 58 -22 21
-30 24 -23 11 12 -24 51 -60 115 -109 53 -39 52 -41 -8 -25 -30 8 -60 32 -118
93 l-79 81 33 -55 c18 -30 48 -74 67 -97 18 -24 29 -43 23 -43 -12 0 -112 123
-161 199 -18 28 -35 51 -37 51 -2 0 17 -39 43 -87 53 -100 30 -81 -57 47 -28
41 -53 77 -56 80 -8 8 73 -149 107 -207 17 -29 28 -53 26 -53 -23 0 -160 232
-203 344 -25 65 -25 65 -8 -49 4 -25 1 -23 -17 15 -11 25 -32 74 -45 110 l-24
65 6 -85 c6 -81 15 -137 29 -171 5 -12 -8 -9 -53 13 -32 17 -83 33 -112 36
-58 8 -57 6 -80 117 -12 55 -13 58 -20 30 -11 -47 -10 256 1 316 32 176 198
369 470 549 36 23 97 73 135 110 72 69 134 120 147 120 4 0 40 -44 81 -97z
m2527 -138 c0 -8 -7 -15 -15 -15 -16 0 -20 12 -8 23 11 12 23 8 23 -8z m140
-31 c0 -61 -40 -104 -97 -104 l-38 0 31 19 c35 21 78 74 89 109 10 34 15 27
15 -24z m-1670 21 c0 -8 -4 -15 -10 -15 -5 0 -10 7 -10 15 0 8 5 15 10 15 6 0
10 -7 10 -15z m881 -5 c35 -11 75 -27 89 -35 24 -15 22 -15 -25 -8 -27 5 -126
8 -220 8 -138 -1 -177 -4 -209 -18 -54 -24 -58 -13 -4 14 119 61 254 76 369
39z m-952 -107 l34 -23 -33 0 c-47 0 -100 55 -100 105 l0 37 33 -48 c17 -27
47 -59 66 -71z m2364 65 c3 -13 15 -57 27 -98 23 -83 50 -213 45 -219 -10 -10
-23 14 -29 55 -3 26 -19 93 -36 151 -16 57 -30 110 -30 118 0 23 17 18 23 -7z
m-3143 -4 c0 -9 -9 -50 -19 -92 -11 -43 -25 -110 -31 -149 -11 -65 -23 -93
-36 -81 -2 3 8 58 22 124 15 65 31 140 36 167 10 45 28 65 28 31z m1726 -36
c-26 -15 -141 -22 -210 -14 -103 13 -59 26 87 26 109 -1 138 -3 123 -12z
m-509 -58 c-53 -59 -71 -105 -65 -164 8 -63 34 -95 106 -127 63 -29 130 -75
165 -114 20 -23 50 -75 45 -80 -2 -1 -48 -4 -103 -6 l-100 -4 -42 84 c-24 47
-57 127 -74 178 -17 51 -34 93 -38 93 -29 0 -93 -145 -112 -254 -11 -64 -12
-66 -48 -76 -47 -12 -116 -56 -171 -109 -24 -22 -45 -41 -47 -41 -1 0 -3 26
-3 58 l-1 57 -29 -55 c-16 -30 -29 -51 -30 -47 -1 28 67 190 106 250 56 86
175 206 263 265 74 49 63 56 -18 11 -50 -29 -85 -54 -200 -146 l-35 -28 20 33
c31 54 185 181 273 226 26 14 127 40 174 45 5 1 -12 -22 -36 -49z m830 36 c88
-19 161 -66 272 -176 69 -68 114 -124 160 -199 40 -65 99 -140 157 -202 232
-246 307 -379 308 -549 0 -84 -20 -139 -96 -259 -22 -36 -67 -126 -99 -200
-70 -160 -102 -208 -160 -239 -54 -29 -104 -25 -180 14 -181 91 -255 270 -277
666 l-7 122 -40 9 c-22 4 -78 17 -125 28 -100 23 -230 47 -230 43 0 -2 33 -20
73 -41 152 -79 228 -194 263 -396 36 -213 10 -296 -112 -357 l-68 -35 -255 -3
c-283 -4 -339 4 -416 56 -80 55 -104 126 -90 271 22 239 99 371 272 465 l68
37 -45 -6 c-46 -7 -190 -35 -290 -58 l-55 -12 -6 -155 c-10 -273 -65 -454
-165 -554 -43 -42 -108 -85 -155 -101 -121 -43 -181 4 -287 224 -36 74 -87
173 -114 220 -70 120 -88 171 -88 244 1 180 82 333 289 547 79 81 132 145 152
183 16 31 31 57 34 57 6 0 -23 -74 -59 -150 -33 -72 -67 -228 -101 -474 -18
-132 -19 -309 -1 -391 l12 -60 7 109 c7 106 38 267 77 396 l20 65 -6 -122 c-3
-73 -1 -123 4 -123 5 0 12 24 16 53 18 161 88 345 155 415 47 48 128 83 142
61 18 -29 10 -66 -18 -84 -85 -54 -115 -105 -137 -231 -20 -110 -19 -145 0
-80 21 68 27 51 9 -25 -8 -35 -15 -75 -15 -89 0 -20 5 -14 24 25 17 35 25 44
25 28 1 -12 -3 -32 -8 -45 -4 -13 -11 -36 -15 -53 -6 -24 0 -20 29 25 43 65
64 85 172 156 107 71 238 131 343 156 116 28 339 22 445 -12 190 -60 424 -219
480 -327 22 -42 19 -4 -5 64 -11 31 -18 58 -16 60 1 2 17 -23 35 -54 l31 -58
-6 40 c-4 22 -17 66 -30 98 -25 62 -16 68 16 9 24 -46 26 -21 5 58 -8 30 -15
69 -15 85 0 44 -62 130 -121 168 -45 29 -49 35 -44 61 7 40 9 41 55 27 124
-37 193 -171 269 -521 10 -44 10 -44 9 25 0 39 1 90 1 115 2 45 2 45 22 -30
33 -123 56 -249 65 -345 l8 -90 12 65 c20 98 17 206 -11 416 -35 270 -40 292
-94 427 -53 133 -97 211 -143 253 -73 67 -262 193 -273 182 -2 -2 21 -24 53
-48 99 -77 211 -191 256 -259 39 -59 58 -104 86 -193 13 -43 1 -33 -20 17 -50
117 -213 312 -315 376 -62 40 -86 44 -44 8 278 -238 348 -328 349 -443 l0 -49
-57 61 c-55 58 -143 112 -185 112 -18 0 -23 12 -33 80 -17 110 -135 294 -135
211 0 -24 -53 -175 -92 -262 l-30 -67 -106 5 c-59 3 -109 7 -111 9 -2 2 8 22
23 44 31 48 130 123 202 156 71 31 99 72 98 144 0 62 -20 108 -67 158 -36 38
-30 39 70 18z m-1147 -105 c0 -5 -7 -12 -16 -15 -14 -5 -15 -4 -4 9 14 17 20
19 20 6z m535 -35 c34 -15 65 -59 65 -95 0 -33 -17 -33 -28 -1 -15 41 -56 80
-86 80 -30 0 -43 17 -19 23 30 8 32 7 68 -7z m413 5 c9 -6 0 -12 -31 -20 -47
-11 -83 -45 -93 -88 -9 -33 -24 -28 -24 8 0 41 15 66 53 89 34 21 73 25 95 11z
m-1051 -68 c-26 -26 -77 -91 -113 -145 -46 -68 -90 -119 -143 -165 -123 -106
-199 -198 -253 -308 -39 -78 -51 -145 -46 -257 4 -69 2 -95 -5 -83 -19 35 -37
121 -37 180 0 75 39 157 157 326 160 229 257 342 350 404 32 22 73 52 91 67
52 44 51 33 -1 -19z m318 -120 c9 -32 32 -96 51 -142 19 -47 33 -85 31 -86
-17 -11 -111 -44 -114 -41 -9 9 -23 83 -23 126 0 37 29 200 36 200 2 0 10 -26
19 -57z m990 11 c24 -59 35 -148 25 -210 -5 -31 -12 -59 -14 -62 -7 -7 -116
40 -116 50 0 5 7 23 16 40 24 47 64 168 64 195 0 33 7 29 25 -13z m-1953 -40
c5 -17 3 -70 -4 -124 l-12 -95 -11 70 -11 70 -7 -47 c-5 -27 -10 -48 -13 -48
-10 0 -247 50 -335 71 -49 11 -89 24 -89 29 0 18 192 80 305 99 142 23 165 20
177 -25z m3048 22 c120 -24 304 -87 288 -100 -8 -7 -261 -67 -342 -81 -69 -12
-91 -12 -97 -3 -11 17 -23 174 -15 187 10 15 77 14 166 -3z m1072 -206 c71
-22 147 -80 174 -132 14 -27 14 -32 -1 -54 -18 -29 -25 -31 -18 -6 6 26 -73
96 -150 133 -34 16 -67 29 -74 29 -11 0 -33 30 -33 44 0 11 38 6 102 -14z
m-5352 -4 c0 -8 -31 -31 -68 -51 -37 -19 -89 -55 -115 -79 -38 -34 -49 -40
-58 -30 -25 30 87 132 173 159 56 18 68 18 68 1z m0 -41 c0 -2 -31 -22 -70
-45 -38 -22 -72 -45 -75 -50 -3 -5 -16 -15 -28 -21 -16 -8 -12 -1 13 25 19 21
62 50 95 66 66 32 65 32 65 25z m3060 -20 c127 -29 224 -71 264 -115 38 -42
46 -79 22 -99 -10 -9 -20 -9 -33 -2 -42 25 -323 130 -378 142 -38 9 -126 14
-235 14 -236 0 -301 -14 -486 -105 -145 -73 -173 -80 -194 -55 -47 57 31 138
178 186 159 51 236 59 527 55 198 -3 278 -8 335 -21z m2298 -26 c44 -22 93
-55 108 -72 l29 -30 -38 28 c-21 15 -77 47 -125 71 -48 24 -79 43 -70 44 9 0
52 -18 96 -41z m-4354 -91 c3 -18 8 -64 11 -103 13 -149 53 -353 89 -454 9
-24 16 -49 15 -55 -1 -17 -26 56 -60 171 -31 108 -79 369 -79 434 0 47 17 52
24 7z m3300 -175 c-20 -112 -30 -117 -15 -8 6 42 11 98 11 125 0 27 3 57 8 67
15 38 13 -93 -4 -184z m-4507 155 c-3 -8 -6 -5 -6 6 -1 11 2 17 5 13 3 -3 4
-12 1 -19z m3843 -54 c11 -30 20 -65 19 -77 0 -13 -10 3 -23 38 -13 33 -28 73
-35 89 -10 25 -10 27 3 17 9 -7 24 -37 36 -67z m-41 -43 c1 -51 -5 -34 -12 29
-4 36 -3 46 3 30 4 -14 8 -40 9 -59z m1688 37 c-3 -7 -5 -2 -5 12 0 14 2 19 5
13 2 -7 2 -19 0 -25z m-3546 -1 c-10 -9 -11 -8 -5 6 3 10 9 15 12 12 3 -3 0
-11 -7 -18z m-1770 -19 c10 -19 9 -20 -7 -13 -11 4 -27 10 -36 12 -22 7 -13
23 12 23 11 0 24 -10 31 -22z m1750 -29 c-5 -13 -10 -19 -10 -12 -1 15 10 45
15 40 3 -2 0 -15 -5 -28z m3466 -21 c-3 -7 -5 -2 -5 12 0 14 2 19 5 13 2 -7 2
-19 0 -25z m232 8 l22 -24 -53 -43 c-30 -24 -76 -69 -103 -100 -28 -31 -63
-64 -79 -74 -29 -18 -30 -18 -47 4 -18 22 -18 23 39 70 32 27 87 80 122 119
36 39 68 71 71 72 3 0 16 -11 28 -24z m-5667 -16 c19 0 44 -7 56 -16 25 -17
122 -131 122 -142 0 -4 -14 -15 -30 -24 -29 -16 -32 -16 -50 0 -10 9 -42 33
-71 52 -107 72 -157 129 -133 152 3 4 21 0 39 -8 19 -8 49 -14 67 -14z m221
14 c36 -12 64 -35 131 -109 87 -94 103 -122 65 -112 -15 4 -19 2 -15 -10 12
-30 -6 -34 -27 -5 -85 113 -204 221 -228 206 -10 -6 -12 30 -2 39 10 10 25 9
76 -9z m5697 -29 c-13 -24 -106 -100 -183 -150 -32 -21 -41 -23 -57 -12 -32
19 -24 43 38 105 48 49 65 60 112 70 30 7 62 17 70 22 24 15 36 -6 20 -35z
m-5368 -83 c43 -34 101 -99 186 -209 39 -49 67 -112 55 -124 -16 -16 -75 35
-152 134 -83 108 -175 202 -190 193 -5 -3 -15 1 -22 10 -10 13 -10 17 2 25 30
19 74 9 121 -29z m4872 23 c19 -14 19 -15 0 -22 -46 -17 -114 -82 -196 -187
-85 -110 -105 -126 -170 -142 -25 -5 -28 -3 -28 19 0 50 197 289 270 328 42
22 98 24 124 4z m-5422 -98 c4 -31 19 -79 33 -108 32 -61 14 -62 -30 -1 -23
34 -30 56 -33 108 -4 53 -2 66 9 62 8 -3 17 -27 21 -61z m572 -63 c86 -98 141
-174 127 -174 -6 0 -42 39 -79 87 -37 48 -91 113 -119 144 -55 58 -73 90 -27
48 15 -13 59 -60 98 -105z m5279 26 c-9 -59 -83 -171 -83 -127 0 9 9 34 20 55
11 21 23 60 26 87 4 28 12 59 17 70 10 18 12 17 19 -15 4 -19 5 -51 1 -70z
m-1326 58 c-3 -8 -6 -5 -6 6 -1 11 2 17 5 13 3 -3 4 -12 1 -19z m-4509 -207
c25 -29 58 -79 72 -110 53 -110 244 -317 438 -473 62 -49 117 -99 123 -110 13
-24 5 -20 -49 19 -18 14 -35 23 -37 21 -2 -2 27 -40 65 -85 72 -83 91 -116 43
-71 -26 23 -97 73 -133 93 -18 10 32 -47 79 -89 40 -36 114 -127 108 -133 -2
-2 -52 32 -110 76 -58 44 -115 85 -127 91 -30 16 108 -118 152 -147 34 -23 98
-107 98 -129 0 -5 -25 17 -56 50 -30 32 -58 56 -60 53 -3 -3 17 -38 44 -78 28
-41 53 -85 57 -99 l6 -25 -21 25 c-12 14 -43 59 -70 100 -57 88 -84 116 -165
171 l-60 41 71 -68 c40 -38 85 -87 101 -109 53 -73 112 -169 128 -210 l16 -40
-23 26 c-13 14 -56 69 -97 122 -68 88 -131 156 -131 141 0 -4 24 -34 53 -68
82 -94 129 -162 191 -276 34 -63 82 -133 121 -176 l64 -71 -67 -6 c-37 -4 -96
-15 -132 -26 l-65 -19 151 -1 c300 -2 470 -33 634 -116 51 -26 64 -44 98 -133
21 -56 21 -58 -9 -42 -10 6 -19 9 -19 6 0 -3 34 -44 75 -93 104 -122 139 -199
160 -357 l7 -49 -41 43 c-40 42 -41 42 -96 38 -69 -6 -123 -45 -145 -106 -22
-63 -33 -50 -26 31 l6 72 -15 -40 c-27 -71 -38 -67 -32 10 7 74 -3 74 -24 0
-18 -64 -22 -24 -4 50 8 38 14 70 12 71 -2 2 -14 -19 -27 -46 l-24 -51 -12 48
c-6 26 -17 84 -23 128 -7 44 -20 109 -30 144 -15 57 -19 62 -26 40 -7 -21 -9
-19 -15 21 -7 43 -7 43 -9 10 -1 -29 -4 -33 -14 -20 -7 8 -26 26 -41 40 l-29
25 26 -47 c14 -27 24 -48 22 -48 -1 0 -20 15 -41 34 -47 42 -55 39 -21 -6 25
-33 80 -183 74 -201 -1 -5 -20 25 -42 67 -21 42 -40 74 -42 72 -3 -2 12 -39
32 -83 39 -83 77 -184 72 -190 -2 -1 -25 31 -51 72 -26 41 -51 77 -56 80 -11
7 7 -46 44 -128 14 -32 26 -63 26 -70 -1 -18 -26 18 -86 126 -30 53 -57 97
-59 97 -5 0 18 -56 67 -160 39 -82 61 -140 53 -140 -2 0 -27 37 -54 82 -57 92
-62 94 -27 10 33 -78 49 -173 41 -244 -7 -59 -25 -91 -25 -44 0 35 -28 104
-58 145 -57 77 -177 92 -252 32 -45 -36 -46 -35 -26 14 8 19 13 35 11 35 -8 0
-29 -46 -36 -80 l-7 -35 -1 40 c0 22 3 56 9 74 14 50 7 48 -21 -7 l-24 -47 -3
37 c-2 20 4 53 12 73 25 58 19 63 -10 9 -15 -27 -33 -60 -40 -74 -19 -35 -17
-13 5 56 24 77 35 138 23 130 -5 -3 -15 -26 -22 -51 -22 -78 -39 -70 -20 10 5
22 6 69 2 105 l-7 65 -5 -70 -5 -70 -18 76 c-13 56 -29 91 -59 132 -23 31 -43
55 -46 53 -2 -3 2 -30 8 -61 6 -31 10 -58 8 -60 -2 -2 -20 17 -41 42 -39 49
-51 50 -16 2 18 -26 73 -169 64 -169 -2 0 -15 20 -29 44 -43 73 -49 63 -9 -14
21 -42 38 -89 39 -113 2 -23 10 -67 18 -97 24 -83 18 -92 -13 -25 -16 33 -36
69 -45 80 -10 11 -6 -3 9 -32 33 -68 32 -75 -5 -33 l-29 35 34 -70 c19 -38 35
-81 35 -95 0 -22 -2 -21 -26 15 -40 61 -43 61 -23 3 10 -29 16 -65 13 -79 -2
-14 0 -39 6 -55 11 -28 10 -28 -29 11 -23 21 -41 36 -41 32 0 -4 14 -34 30
-67 37 -73 37 -80 3 -49 -39 34 -93 71 -93 63 0 -4 18 -31 40 -60 52 -69 51
-85 -2 -42 -24 19 -56 43 -73 54 -29 18 -29 18 7 -23 64 -72 75 -118 13 -53
-40 41 -49 38 -25 -10 11 -22 17 -40 13 -40 -3 0 -39 31 -78 69 -79 77 -120
96 -139 65 -31 -52 -33 -106 -6 -181 11 -31 31 -74 46 -96 34 -52 24 -58 -15
-8 -67 85 -131 273 -111 326 5 12 23 34 42 49 20 16 25 24 13 20 -11 -4 -30
-16 -42 -27 l-23 -20 0 34 c0 52 -33 99 -70 99 -35 0 -57 -28 -71 -90 -9 -38
-6 -67 16 -190 6 -34 6 -34 -10 -15 -38 44 -65 119 -65 178 0 68 19 119 63
166 l32 34 -34 -23 c-99 -69 -94 -261 11 -392 35 -44 12 -46 -32 -3 -72 71
-84 109 -88 282 -5 183 8 267 54 364 39 81 133 183 202 218 50 25 54 33 11 21
-71 -21 -215 -122 -273 -193 -50 -62 -81 -138 -100 -246 -22 -129 -28 -133
-50 -30 l-14 64 -1 -100 c-1 -110 -11 -113 -32 -8 -7 35 -17 63 -22 63 -5 0
-6 -7 -3 -16 3 -9 3 -61 -1 -117 l-7 -102 -12 93 c-6 51 -15 96 -19 100 -4 4
-5 -20 -1 -53 8 -68 -3 -225 -15 -225 -4 0 -14 19 -20 43 -20 70 -28 64 -22
-17 3 -42 3 -76 0 -76 -3 0 -18 33 -33 73 -33 85 -72 130 -110 125 -37 -4 -64
-57 -65 -128 l0 -55 -15 40 c-10 26 -14 64 -12 107 4 80 28 112 92 127 l41 9
-36 1 c-23 1 -46 -7 -64 -21 l-28 -22 7 40 c14 73 48 159 81 204 39 54 75 83
215 177 133 90 256 212 143 142 -19 -12 -36 -19 -38 -17 -3 3 6 27 19 55 16
33 49 72 94 112 46 41 78 79 95 115 33 67 34 76 5 48 l-23 -21 0 127 c0 82 -8
177 -22 268 -57 360 -53 547 17 708 25 58 21 70 -9 24 -34 -54 -25 -6 14 68
19 37 33 69 31 71 -2 2 -18 -15 -36 -39 -39 -51 -32 -27 16 59 35 64 105 155
173 228 55 60 56 61 17 100 -36 36 -67 89 -80 135 -5 15 3 7 20 -20 15 -25 47
-69 72 -99z m5858 56 c-14 -29 -42 -69 -62 -90 -25 -26 -34 -41 -27 -50 5 -6
40 -49 76 -95 57 -71 127 -185 127 -208 0 -4 -12 3 -27 17 l-27 24 22 -32 c25
-36 46 -83 56 -128 7 -29 6 -28 -24 13 -40 53 -46 54 -20 1 73 -141 84 -374
36 -724 -22 -156 -27 -222 -23 -302 3 -57 4 -103 2 -103 -1 0 -12 15 -24 33
-30 47 -25 14 9 -57 20 -43 50 -82 95 -124 60 -55 111 -138 103 -164 -2 -5
-22 5 -46 21 -23 17 -45 31 -48 31 -18 0 152 -144 240 -203 187 -126 221 -176
262 -376 l6 -35 -32 27 c-20 18 -43 27 -63 26 -33 -1 -30 -3 14 -13 71 -15
102 -98 78 -209 l-13 -62 -11 65 c-6 36 -17 75 -25 88 -45 68 -113 13 -150
-120 -20 -74 -34 -60 -27 27 4 41 5 75 3 75 -3 0 -12 -25 -21 -55 -8 -30 -20
-55 -25 -55 -6 0 -11 55 -12 133 -1 72 -3 114 -5 92 -2 -22 -6 -60 -10 -85
l-7 -45 -7 55 c-4 30 -7 81 -8 113 -1 31 -5 57 -11 57 -5 0 -10 -13 -10 -29 0
-15 -3 -50 -7 -77 -9 -65 -21 -32 -22 59 -1 37 -5 67 -11 67 -5 0 -10 -13 -10
-29 0 -38 -11 -91 -19 -91 -3 0 -16 51 -27 113 -12 63 -34 140 -49 171 -37 79
-152 191 -242 238 -99 52 -127 57 -58 10 77 -52 125 -102 169 -176 61 -102 70
-148 71 -356 0 -174 -1 -188 -23 -228 -23 -43 -100 -128 -108 -119 -3 2 4 40
16 83 25 98 26 176 0 231 -21 47 -58 65 -87 42 -20 -18 -43 -71 -43 -103 l0
-24 -31 29 c-44 41 -54 36 -13 -5 40 -40 43 -73 18 -169 -18 -71 -45 -128 -86
-179 -38 -49 -56 -49 -24 -1 37 55 56 118 56 180 0 69 -13 93 -49 93 -29 0
-108 -50 -117 -75 -6 -16 -84 -59 -92 -51 -3 3 1 14 10 23 8 10 23 31 33 47
l18 30 -49 -35 c-75 -55 -78 -56 -58 -18 9 19 28 48 40 65 39 50 28 50 -27 -1
-28 -26 -52 -45 -55 -43 -2 3 7 26 22 51 31 56 30 102 -1 50 -24 -42 -48 -45
-35 -5 4 15 11 56 13 92 5 57 4 63 -8 46 -8 -10 -16 -24 -18 -30 -2 -6 -7 -9
-10 -6 -3 3 8 45 23 95 16 49 27 91 25 93 -2 2 -18 -23 -34 -57 -17 -34 -33
-61 -35 -61 -5 0 37 153 53 193 16 41 13 47 -6 12 -9 -16 -27 -61 -39 -100
-16 -49 -23 -62 -23 -42 -1 29 59 218 85 268 8 16 12 29 9 29 -2 0 -19 -28
-36 -62 -47 -92 -47 -55 0 59 l40 98 -30 -35 -31 -35 5 30 c17 95 18 107 8
100 -6 -3 -11 -12 -11 -19 0 -7 -9 -21 -19 -30 -24 -22 -61 -98 -62 -128 -1
-13 -7 -1 -15 27 -13 49 -13 48 -8 -50 l5 -100 -30 85 c-34 99 -37 93 -15 -30
8 -50 14 -105 12 -123 -3 -28 -6 -23 -26 41 -13 41 -25 72 -28 70 -4 -5 21
-157 31 -189 11 -32 -2 -21 -30 27 -15 25 -29 44 -31 41 -2 -2 3 -24 12 -50 8
-25 14 -56 12 -69 -2 -19 -8 -14 -36 35 -19 31 -35 57 -37 57 -2 0 2 -19 10
-41 8 -23 15 -50 15 -61 0 -15 -6 -12 -30 15 -50 58 -136 70 -213 31 -40 -21
-75 -81 -90 -154 l-14 -65 -11 52 c-14 63 -2 174 28 259 31 89 23 87 -25 -6
-24 -47 -44 -79 -44 -71 -1 12 45 131 93 244 9 20 14 37 11 37 -3 0 -31 -52
-62 -115 -31 -63 -58 -114 -59 -112 -5 5 23 100 39 132 8 17 18 41 22 55 7 26
3 22 -68 -92 -16 -27 -31 -48 -32 -48 -5 0 12 57 34 115 23 57 69 205 64 205
-6 0 -36 -65 -48 -104 -10 -32 -13 -35 -14 -16 0 14 15 63 34 110 19 47 35 87
35 90 0 2 -14 -11 -31 -30 -18 -21 -28 -27 -25 -17 23 73 18 88 -9 30 l-18
-36 -13 24 c-13 23 -13 23 -14 -17 0 -52 -10 -62 -26 -27 -12 27 -12 27 -13
-19 -1 -26 -5 -49 -10 -52 -7 -4 -19 -67 -35 -176 -1 -9 -8 -3 -18 15 -17 30
-17 30 -12 -40 l5 -70 -27 53 c-15 29 -28 51 -30 49 -2 -1 3 -27 11 -57 19
-70 18 -82 -1 -47 -20 37 -28 28 -16 -17 12 -43 1 -46 -27 -8 l-21 27 10 -28
c5 -16 10 -45 10 -65 l0 -36 -29 46 c-60 95 -186 116 -247 41 l-22 -26 5 49
c14 146 59 243 166 359 32 34 59 75 50 75 -5 0 -14 -5 -21 -12 -22 -22 -22 -2
-1 63 24 75 47 102 111 135 129 65 338 98 596 92 138 -3 150 -2 120 11 -40 16
-202 51 -241 51 l-29 0 40 43 c73 76 132 164 211 315 18 35 6 26 -28 -20 -47
-64 -37 -33 25 76 31 53 54 100 51 102 -2 3 -24 -25 -48 -62 -24 -37 -45 -62
-47 -56 -5 17 71 135 96 148 12 6 50 38 85 71 126 121 114 123 -28 4 -92 -78
-109 -94 -152 -146 -24 -29 -24 -29 -17 -5 10 36 55 98 109 150 42 40 72 80
62 80 -3 0 -40 -29 -83 -64 -43 -36 -81 -63 -83 -61 -7 8 53 80 123 148 72 69
61 73 -27 11 -26 -19 -50 -34 -53 -34 -8 0 51 83 76 105 12 11 36 38 53 59 31
39 31 39 -33 -12 -64 -52 -85 -63 -78 -39 6 18 264 243 332 289 130 89 265
255 266 327 0 9 31 53 69 98 39 45 73 96 77 115 5 22 9 27 12 15 2 -10 -8 -42
-22 -70z m-5603 -42 c21 -39 65 -105 98 -147 62 -80 78 -108 62 -108 -22 0
-203 225 -203 253 0 5 -3 8 -6 5 -12 -12 79 -171 136 -237 57 -66 71 -91 51
-91 -17 0 -99 98 -141 170 -65 110 -80 145 -80 183 0 73 34 61 83 -28z m5360
57 c42 -46 26 -111 -56 -232 -35 -51 -146 -170 -159 -170 -20 0 -2 26 85 118
86 91 147 185 147 226 0 28 -16 17 -29 -19 -28 -79 -208 -283 -225 -256 -3 5
27 53 67 108 42 58 84 129 101 171 29 75 42 85 69 54z m-5088 -63 c25 -34 45
-65 45 -69 0 -4 -9 -15 -21 -26 -11 -10 -27 -33 -34 -51 -17 -39 -39 -42 -85
-10 -38 25 -100 110 -100 137 0 13 11 19 43 23 28 4 48 14 62 31 11 13 26 25
33 25 6 1 32 -26 57 -60z m4825 30 c23 -19 52 -32 71 -33 39 -2 44 -14 29 -60
-14 -42 -105 -130 -126 -122 -9 3 -24 6 -35 6 -13 0 -19 7 -19 23 0 12 -13 38
-29 58 l-30 36 21 34 c19 32 67 89 75 89 3 0 22 -14 43 -31z m2109 -83 l-41
-113 32 -104 c17 -57 33 -112 36 -121 3 -11 -40 7 -138 59 -79 41 -149 80
-156 85 -13 11 -44 -3 -221 -100 -52 -29 -96 -51 -97 -49 -2 1 13 53 33 115
l36 113 -51 102 c-28 56 -50 103 -49 103 3 3 173 -34 262 -56 l80 -20 150 49
c83 27 153 50 157 50 4 1 -11 -50 -33 -113z m-8900 53 l135 -42 153 38 c85 21
157 35 160 31 3 -3 -10 -44 -30 -90 -20 -47 -37 -98 -37 -113 1 -15 14 -66 30
-113 17 -47 30 -88 30 -93 0 -4 -63 24 -140 63 -77 38 -147 70 -155 70 -9 0
-41 -14 -72 -31 -86 -48 -235 -121 -238 -117 -2 2 12 54 32 116 l35 113 -36
102 c-20 56 -36 106 -36 110 0 10 -8 12 169 -44z m1660 -227 c41 -46 94 -97
118 -113 26 -18 43 -38 43 -49 0 -11 -3 -20 -7 -20 -5 0 -36 25 -70 55 -74 66
-176 190 -204 248 l-19 42 32 -39 c18 -22 66 -77 107 -124z m523 108 c32 -14
88 -63 191 -170 162 -166 202 -214 192 -230 -8 -14 -38 -13 -53 2 -9 9 -12 8
-12 -7 0 -14 -47 27 -152 131 -181 179 -200 194 -244 194 -19 0 -34 5 -34 10
0 17 47 33 75 26 15 -4 85 -64 158 -134 72 -70 116 -108 98 -84 -18 23 -73 83
-123 132 -99 99 -142 121 -197 102 -34 -12 -40 -3 -13 20 14 14 32 21 63 27 4
0 27 -8 51 -19z m4413 -5 c27 -27 31 -40 14 -51 -7 -4 -19 3 -29 16 -16 21
-20 22 -46 11 -16 -7 -42 -29 -59 -49 l-30 -37 44 38 c25 20 49 37 55 37 14 0
42 -18 36 -22 -3 -2 -23 -12 -45 -23 -22 -11 -83 -61 -135 -112 -52 -50 -137
-118 -187 -152 -92 -60 -93 -60 -99 -36 -8 32 3 46 190 226 191 184 238 208
291 154z m506 -57 c-40 -57 -93 -114 -166 -177 -124 -109 -130 -87 -9 31 47
46 111 109 142 140 30 32 57 56 60 54 2 -3 -10 -24 -27 -48z m-4101 -14 c28
-24 70 -91 70 -112 0 -5 -39 -35 -87 -67 -100 -66 -295 -217 -289 -223 2 -2
13 1 24 7 12 6 29 11 39 11 24 0 -80 -49 -119 -55 -16 -3 -34 -7 -40 -8 -28
-6 -9 33 93 194 112 175 161 244 189 266 27 22 86 15 120 -13z m2818 10 c43
-30 303 -436 289 -451 -12 -11 -100 11 -130 32 -102 74 -237 161 -309 199 -26
14 -49 29 -52 34 -5 9 25 106 44 142 27 51 113 76 158 44z m-3790 -95 c16 -30
75 -111 126 -174 13 -16 27 -40 31 -52 13 -43 -25 -25 -101 50 -41 40 -74 71
-74 69 0 -2 10 -18 22 -35 17 -25 18 -29 4 -17 -25 20 -76 111 -76 135 0 12 8
4 20 -22 23 -51 35 -58 14 -8 -31 74 -2 120 34 54z m4673 15 c10 -12 10 -22 1
-46 -10 -26 -9 -28 5 -16 15 12 15 11 3 -9 -8 -12 -17 -20 -21 -18 -3 3 -11
-6 -17 -20 -26 -57 -128 -145 -168 -145 -36 0 -29 21 27 85 28 32 63 77 77 99
30 48 63 86 73 86 3 0 12 -7 20 -16z m-4512 -78 c23 -25 16 -41 -13 -30 -29
11 -42 54 -16 54 4 0 17 -11 29 -24z m4331 1 c0 -19 -21 -37 -42 -37 -22 0
-23 8 -1 32 19 21 43 24 43 5z m-3430 -20 c0 -7 -60 -47 -133 -90 -72 -42
-148 -87 -166 -99 -19 -13 -32 -18 -29 -12 8 12 85 64 189 128 42 25 87 57
100 69 25 24 39 25 39 4z m-784 -102 c12 -7 31 -42 44 -77 35 -98 68 -157 126
-230 30 -37 54 -69 54 -72 0 -3 -15 1 -34 9 -18 8 -36 12 -39 8 -7 -7 -83 109
-137 210 -45 82 -79 123 -60 71 24 -64 93 -184 128 -222 13 -14 15 -22 7 -22
-11 0 -100 129 -126 185 -52 108 -31 188 37 140z m4120 -11 c4 -14 1 -43 -5
-64 -20 -68 -199 -299 -221 -285 -4 3 -21 0 -36 -5 -15 -6 -29 -9 -31 -6 -2 2
28 46 67 97 39 52 88 128 107 169 51 105 62 120 89 120 17 0 25 -7 30 -26z
m-599 -80 c-3 -3 -12 -4 -19 -1 -8 3 -5 6 6 6 11 1 17 -2 13 -5z m76 -24 c5
-4 -3 -5 -17 -3 -15 3 -29 10 -32 15 -7 11 36 1 49 -12z m17 -105 c10 -12 8
-21 -8 -50 -27 -44 -124 -166 -129 -161 -4 4 76 125 105 159 8 9 12 17 9 17
-3 0 -45 -48 -92 -107 -48 -60 -91 -110 -96 -112 -15 -5 18 68 57 128 37 56
117 141 133 141 4 0 14 -7 21 -15z m-3085 -48 c50 -54 125 -170 125 -194 0
-25 -17 -12 -53 40 -21 30 -49 64 -64 78 l-27 24 19 -30 c33 -53 67 -115 62
-115 -8 0 -133 172 -151 207 -21 42 -21 43 11 43 20 0 41 -14 78 -53z m3254
-39 c-24 -48 -107 -153 -166 -211 -39 -37 -40 -37 -57 -18 -17 19 -17 21 14
65 17 26 74 90 127 144 70 71 97 93 100 80 2 -9 -6 -36 -18 -60z m-3378 -94
c54 -62 99 -116 99 -122 0 -17 -28 -34 -44 -25 -8 4 -47 44 -86 88 -67 74
-120 163 -120 202 0 22 25 -2 151 -143z m1967 106 c-30 -18 -182 -49 -273 -55
-106 -8 -248 7 -331 35 -33 11 -48 18 -34 15 206 -36 219 -37 340 -31 69 3
163 15 210 25 101 22 110 23 88 11z m-892 -55 c38 -16 84 -63 84 -87 0 -18
-59 -92 -67 -84 -2 2 3 19 12 38 11 22 -26 -11 -112 -100 -70 -72 -131 -132
-134 -132 -7 0 16 155 40 265 l18 80 54 -2 54 -2 -38 18 c-20 10 -34 21 -30
25 9 9 78 -2 119 -19z m1199 -5 l-40 -20 52 6 c48 5 53 4 62 -18 14 -31 61
-270 61 -305 0 -27 -1 -27 -51 22 -28 28 -82 87 -121 133 -39 45 -73 81 -75
78 -3 -2 7 -26 22 -53 l27 -48 -41 45 c-53 58 -59 81 -31 121 28 39 71 58 130
58 l45 0 -40 -19z m-1896 -47 c31 -20 95 -76 142 -123 91 -91 119 -142 119
-222 0 -44 -19 -97 -42 -116 -14 -11 -14 -8 -5 28 12 44 -3 145 -24 164 -11
11 -8 -26 8 -93 4 -14 2 -22 -4 -18 -5 3 -15 38 -22 77 -13 70 -13 70 -89 138
-125 110 -193 176 -204 196 -10 18 -7 19 28 13 21 -4 63 -23 93 -44z m2601 25
c0 -13 -98 -110 -183 -181 -70 -59 -85 -81 -102 -149 l-13 -53 -1 50 c-1 41
-4 47 -12 32 -6 -11 -9 -54 -7 -102 2 -71 1 -82 -11 -72 -48 40 -54 149 -12
223 35 60 174 194 245 235 53 30 96 38 96 17z m-3180 -113 c7 -9 8 -15 2 -15
-5 0 -12 7 -16 15 -3 8 -4 15 -2 15 2 0 9 -7 16 -15z m-10 -94 c0 -81 56 -172
192 -316 88 -92 155 -144 281 -215 66 -37 108 -37 176 -1 l40 20 68 -50 c37
-28 80 -57 94 -64 20 -11 28 -26 38 -72 27 -121 89 -192 226 -260 64 -32 197
-83 280 -106 28 -8 40 -15 28 -16 -63 -3 -355 119 -449 187 -55 40 -101 113
-116 184 -9 44 -18 62 -38 75 -14 9 -46 34 -72 55 l-48 40 -55 -21 c-31 -12
-67 -21 -80 -21 -31 0 -31 -1 0 -46 25 -37 55 -122 55 -155 0 -10 23 -44 51
-76 27 -31 70 -97 94 -145 58 -115 79 -214 72 -332 -6 -111 -33 -235 -53 -243
-25 -9 -26 3 -8 54 13 36 17 80 18 173 0 109 -4 135 -27 205 -30 91 -79 179
-144 257 -24 29 -48 69 -53 88 -5 19 -14 57 -21 83 -25 98 -148 196 -288 229
-54 12 -68 28 -25 28 24 0 19 8 -59 89 -46 49 -109 122 -138 162 l-54 72 -7
-49 c-12 -88 -9 -164 8 -195 10 -20 33 -39 67 -54 l52 -24 -60 0 c-60 -1 -61
-1 -99 45 l-38 46 6 101 c8 111 34 316 43 330 9 14 43 -35 43 -62z m3690 11
c17 -61 40 -232 40 -305 0 -54 -5 -75 -21 -98 -26 -37 -80 -64 -144 -73 -59
-8 -50 5 21 28 90 29 89 28 87 161 -2 156 -6 163 -49 90 -43 -71 -106 -152
-173 -223 -28 -30 -49 -58 -46 -63 3 -4 -25 -22 -62 -39 -144 -65 -187 -115
-207 -240 -11 -71 -17 -84 -69 -151 -121 -158 -166 -332 -137 -529 9 -62 4
-79 -21 -80 -15 0 -32 173 -27 277 5 83 12 124 32 178 26 68 86 170 124 211
28 30 42 59 42 91 1 24 21 91 45 146 6 14 2 17 -24 17 -18 0 -54 12 -82 26
l-51 25 -43 -33 c-33 -25 -49 -47 -64 -89 -30 -80 -80 -140 -165 -197 -73 -49
-184 -107 -191 -100 -2 2 35 27 83 55 148 86 225 169 251 269 9 34 21 49 64
78 29 20 57 36 62 36 6 0 32 -11 59 -25 61 -31 78 -31 141 -1 139 65 286 192
387 336 64 91 77 120 84 187 10 90 34 106 54 35z m-1759 28 c62 -17 65 -28 39
-138 -12 -53 -24 -107 -27 -119 -5 -22 -11 -24 -96 -39 -35 -6 -38 -5 -49 27
-6 19 -33 77 -59 129 -55 109 -54 114 28 136 59 16 116 17 164 4z m-1678 -100
c9 0 17 -3 18 -7 5 -48 39 -94 150 -196 76 -71 94 -97 66 -97 -33 0 -150 109
-280 260 -30 35 -47 48 -47 37 0 -9 36 -60 80 -112 91 -107 94 -131 5 -30 -92
103 -110 139 -98 197 l6 29 41 -40 c23 -23 49 -41 59 -41z m284 41 c75 -54
173 -155 173 -179 0 -12 -5 -22 -12 -22 -23 0 -105 61 -172 129 -59 60 -68 72
-56 85 17 21 21 21 67 -13z m2965 -7 c-2 -16 -11 -45 -20 -64 -29 -62 -259
-270 -298 -270 -28 0 -12 28 49 87 118 114 158 162 155 185 -2 17 7 28 40 46
24 14 46 31 49 39 10 24 28 7 25 -23z m-302 16 c12 -9 2 -23 -55 -78 -82 -79
-164 -130 -177 -110 -4 7 -8 18 -8 23 0 25 179 175 208 175 10 0 24 -5 32 -10z
m-1496 -80 c5 -23 4 -30 -2 -20 -5 8 -12 31 -15 50 -4 22 -3 29 2 20 5 -8 12
-31 15 -50z m-778 -89 c43 -31 102 -91 90 -91 -29 0 -127 71 -138 101 -10 26
3 24 48 -10z m1859 3 c0 -12 -21 -31 -65 -56 -111 -65 -125 -46 -22 31 70 52
87 57 87 25z m-1813 -122 c78 -46 87 -58 62 -83 -20 -19 -20 -19 -97 52 -42
39 -77 78 -77 86 0 13 4 13 28 -3 15 -10 53 -33 84 -52z m1838 48 c0 -6 -21
-25 -47 -43 -26 -17 -55 -40 -66 -51 -16 -15 -21 -16 -28 -5 -17 26 -4 44 56
76 63 34 85 40 85 23z m220 -1 c0 -13 -35 -64 -72 -104 -15 -16 -25 -31 -23
-33 6 -7 61 36 94 73 35 40 41 42 41 16 0 -23 -101 -111 -175 -152 -72 -39
-253 -119 -271 -119 -8 0 -14 -6 -14 -14 0 -26 -66 -36 -88 -14 -35 35 0 68
123 114 141 54 226 104 295 176 61 64 90 82 90 57z m-2277 -81 c94 -95 196
-159 356 -225 120 -50 133 -59 129 -86 -8 -55 -72 -38 -290 80 -206 110 -285
168 -329 239 -36 58 -12 51 47 -15 69 -75 118 -107 63 -40 -39 47 -79 109 -79
122 0 20 27 0 103 -75z m1221 25 c14 -15 39 -53 56 -84 51 -95 37 -173 -34
-195 -22 -7 -22 -8 -96 106 -27 41 -60 87 -74 102 -14 15 -26 32 -26 37 0 15
54 41 103 51 23 4 43 8 44 9 1 1 14 -11 27 -26z m603 -5 c9 -7 -9 -21 -66 -48
-43 -21 -96 -50 -119 -64 -48 -30 -61 -32 -88 -11 -19 14 -18 15 6 35 42 34
110 72 164 91 50 18 78 17 103 -3z m-1280 -83 c38 -14 119 -49 180 -77 108
-48 113 -51 107 -77 -10 -38 -14 -43 -28 -32 -6 5 -81 38 -166 71 -85 34 -172
70 -193 81 -21 10 -52 19 -70 19 l-32 1 24 19 c32 28 96 26 178 -5z m922 -56
c38 -13 39 -28 4 -64 -39 -38 -82 -60 -87 -43 -8 24 -14 107 -8 113 9 9 57 6
91 -6z m111 -60 c7 -11 9 -27 6 -34 -3 -8 -51 -46 -108 -84 -57 -39 -123 -87
-148 -105 -46 -36 -151 -76 -195 -76 -21 0 -25 5 -25 30 0 24 6 33 28 42 100
40 184 85 285 152 64 42 119 81 122 86 10 16 23 12 35 -11z m-512 -32 l22 -23
-50 -52 c-49 -51 -80 -106 -80 -143 0 -21 -12 -24 -41 -9 -28 15 -24 57 11
128 28 54 88 122 109 122 4 0 17 -10 29 -23z m-287 -87 c32 -18 21 -29 -17
-18 -20 5 -47 7 -60 4 -23 -6 -32 3 -17 17 10 11 72 8 94 -3z m879 -29 c5 -11
10 -29 10 -39 0 -23 -102 -120 -108 -103 -7 20 -23 11 -33 -19 -6 -16 -17 -30
-25 -30 -8 0 -14 -4 -14 -10 0 -12 -20 -13 -40 0 -12 8 -11 12 6 32 11 13 31
40 44 61 31 53 62 72 89 55 20 -12 20 -13 -6 -40 -15 -15 -23 -31 -20 -35 7
-7 67 52 67 65 0 4 -9 13 -20 20 -23 14 -26 32 -8 50 18 18 46 14 58 -7z m270
-4 c0 -7 -11 -29 -25 -49 -24 -36 -63 -66 -150 -118 l-40 -24 36 44 c20 25 46
64 57 86 15 29 32 46 59 57 47 20 63 21 63 4z m15 -36 c-21 -43 -29 -39 -8 4
9 19 18 33 21 31 2 -2 -4 -18 -13 -35z m-1097 -98 c78 -37 142 -70 142 -74 0
-4 -17 -15 -37 -24 -31 -15 -42 -16 -68 -5 -16 6 -41 13 -55 14 -14 1 -48 20
-75 41 -28 21 -65 45 -82 53 -52 25 -42 78 12 67 11 -2 84 -35 163 -72z m-538
48 c0 -27 37 -69 80 -91 50 -25 243 -100 247 -96 7 6 -43 33 -146 79 -129 58
-151 72 -151 97 0 29 20 25 94 -20 36 -22 68 -40 71 -40 26 0 98 -48 119 -80
16 -25 42 -46 71 -59 25 -11 45 -22 45 -24 0 -17 -290 85 -367 129 -23 13 -51
36 -62 50 -22 28 -29 74 -11 74 6 0 10 -8 10 -19z m1119 -150 c241 -98 377
-355 315 -595 -47 -184 -184 -323 -365 -371 -73 -20 -222 -19 -290 1 -258 75
-419 352 -353 608 48 187 182 330 349 373 80 20 277 11 344 -16z m-564 -3 c14
-6 25 -15 25 -20 0 -5 -13 -2 -30 7 -45 23 -41 34 5 13z m1972 -195 c-3 -10
-5 -4 -5 12 0 17 2 24 5 18 2 -7 2 -21 0 -30z m-306 -200 c17 -17 32 -44 36
-65 7 -44 -4 -108 -18 -108 -6 0 -7 5 -4 10 10 16 -13 75 -40 100 -28 27 -102
37 -126 18 -9 -8 -26 -29 -38 -48 l-21 -35 0 46 c0 32 7 55 21 73 29 37 55 46
112 42 38 -2 56 -10 78 -33z m-2669 -12 c19 -22 28 -42 28 -67 l0 -35 -31 36
c-26 29 -38 35 -70 35 -61 0 -97 -39 -111 -119 -10 -61 -11 -63 -24 -40 -20
37 -17 129 5 163 32 49 70 68 125 63 40 -4 55 -10 78 -36z m3278 -31 c20 -5
51 -26 70 -45 30 -31 35 -43 38 -99 4 -61 -11 -136 -27 -136 -4 0 -8 16 -9 35
-3 79 -75 165 -139 165 -28 0 -43 -8 -70 -36 l-34 -36 7 43 c8 57 32 91 75
106 43 15 46 15 89 3z m-4030 -16 c45 -18 74 -59 84 -117 l7 -39 -36 36 c-19
20 -43 36 -53 37 -9 0 -25 2 -34 4 -50 9 -107 -69 -124 -170 l-7 -40 -12 35
c-8 19 -14 62 -14 95 -1 138 77 204 189 159z m3324 -102 c9 -11 30 -57 47
-103 16 -46 54 -132 84 -191 30 -60 51 -108 46 -108 -13 0 -89 88 -118 138
-30 50 -37 53 -28 10 l6 -33 -26 40 c-29 46 -65 154 -65 197 0 31 15 68 29 68
4 0 15 -8 25 -18z m-2616 -27 c19 -22 21 -30 12 -68 -15 -68 -37 -124 -65
-164 -28 -41 -28 -44 -10 42 3 14 4 25 1 25 -2 0 -22 -28 -45 -62 -52 -80
-127 -165 -136 -156 -4 4 13 43 39 86 25 43 46 81 46 85 0 21 111 237 123 237
7 0 23 -11 35 -25z m3250 -147 c-11 -96 -33 -228 -39 -228 -18 0 -25 155 -10
222 10 41 32 70 45 58 4 -4 6 -28 4 -52z m-3918 -27 c12 -62 12 -177 1 -206
-7 -18 -15 15 -48 187 -3 16 -2 44 2 64 5 32 8 35 21 23 7 -8 18 -39 24 -68z
m3988 38 c9 -17 11 -46 6 -98 -10 -124 -18 -127 -44 -21 -18 76 -20 101 -11
123 13 33 30 31 49 -4z m-4056 -20 c5 -32 -3 -89 -23 -162 -15 -56 -26 -33
-35 70 -7 87 3 123 35 123 13 0 20 -9 23 -31z m3247 -18 c35 -25 37 -39 4 -34
l-28 4 30 -14 c17 -8 46 -29 65 -46 l35 -32 -35 17 c-47 23 -128 44 -165 43
-25 -1 -22 -3 20 -16 68 -19 123 -43 136 -60 9 -10 5 -10 -22 1 -27 11 -265
47 -304 46 -23 -1 23 -18 65 -25 85 -14 247 -62 238 -71 -2 -1 -35 6 -73 17
-97 27 -387 50 -314 25 8 -3 68 -14 133 -26 65 -11 126 -25 135 -31 13 -9 13
-10 -3 -4 -33 10 -206 25 -291 24 -108 -1 -62 -14 80 -23 61 -4 126 -11 145
-16 28 -7 22 -8 -30 -4 -36 2 -122 5 -192 7 -72 1 -128 6 -128 11 0 19 53 86
96 121 120 99 325 142 403 86z m-4821 -58 c31 -117 35 -133 28 -133 -19 0 -83
181 -70 201 13 21 23 4 42 -68z m7152 47 c0 -39 -37 -135 -64 -167 -20 -24
-19 -16 13 86 35 111 51 136 51 81z m-650 -59 c0 -32 -34 -142 -55 -179 l-16
-27 6 30 c4 17 11 71 15 122 4 50 11 97 16 104 10 17 34 -18 34 -50z m-5842
17 c6 -18 13 -73 16 -123 5 -80 4 -87 -8 -65 -22 39 -49 166 -42 194 9 35 22
33 34 -6z m1782 -23 c0 -2 -18 -14 -40 -25 -44 -23 -56 -9 -12 14 27 15 52 20
52 11z m110 -10 c0 -3 -10 -9 -22 -14 -13 -5 -40 -17 -61 -26 -48 -20 -39 -2
11 25 35 18 72 26 72 15z m100 -13 c0 -4 -21 -16 -47 -25 -50 -19 -49 -9 2 17
34 18 45 20 45 8z m1901 -158 c49 -10 54 -12 19 -9 -25 2 -98 7 -162 11 -72 4
-115 10 -112 16 8 12 165 1 255 -18z m-3033 -59 c38 -79 108 -84 174 -11 l38
41 27 -28 28 -28 -25 -21 c-22 -18 -25 -18 -28 -4 -6 27 -33 18 -72 -24 -29
-31 -44 -40 -69 -40 -40 0 -86 45 -96 93 -4 17 -9 40 -11 50 -10 34 13 16 34
-28z m4132 -20 c-23 -69 -93 -94 -163 -59 -39 20 -76 62 -77 87 0 13 10 7 38
-23 68 -70 157 -55 194 33 17 42 24 11 8 -38z m-1277 48 c-7 -2 -21 -2 -30 0
-10 3 -4 5 12 5 17 0 24 -2 18 -5z m2112 -82 c-33 -29 -157 -41 -189 -18 -15
11 -8 12 46 9 34 -2 79 1 98 6 46 13 56 14 45 3z m-5701 -18 c-22 -16 -80 -16
-117 0 -25 11 -19 12 53 12 68 1 78 -1 64 -12z m-638 -265 l89 -93 -3 -190 -3
-190 -81 -54 c-44 -30 -82 -60 -85 -67 -4 -12 40 -102 160 -323 32 -59 37 -75
26 -82 -8 -5 -73 -9 -144 -9 l-130 0 -34 63 c-102 189 -166 303 -174 308 -14
10 -47 -2 -48 -17 -1 -8 -3 -18 -4 -24 -1 -5 -3 -82 -4 -170 l-1 -160 -130 0
-130 0 -2 197 c-2 109 -2 357 0 551 l2 352 303 0 303 0 90 -92z m925 0 l88
-93 1 -371 0 -370 -89 -87 -88 -87 -208 0 -208 0 -88 87 -89 87 0 375 0 376
83 88 82 87 213 0 214 0 89 -92z m800 65 c14 -35 77 -212 217 -608 61 -170
122 -341 136 -379 14 -38 24 -72 20 -75 -3 -3 -67 -7 -142 -9 l-137 -3 -35
113 -35 113 -145 3 -146 3 -33 -103 c-18 -57 -38 -109 -43 -115 -8 -9 -50 -13
-150 -13 -130 0 -140 1 -132 18 8 19 203 606 289 872 32 96 61 183 66 193 9
15 26 17 135 17 l124 0 11 -27z m1136 -65 l93 -93 0 -366 0 -366 -89 -91 -90
-92 -295 0 -296 0 0 550 0 550 292 0 293 0 92 -92z m1311 -1 l92 -93 -2 -364
-3 -365 -87 -90 -86 -90 -299 0 -298 0 -3 548 -2 547 298 0 297 0 93 -93z
m923 6 l83 -88 -2 -375 -2 -375 -87 -87 -88 -88 -208 0 -208 0 -89 90 -90 91
0 371 0 371 87 88 87 89 217 0 217 0 83 -87z m869 74 c8 -7 48 -47 88 -89 70
-74 72 -77 68 -120 -3 -23 -5 -62 -5 -85 l-1 -43 -120 0 -120 0 0 34 c0 67 1
66 -144 66 -89 0 -136 -4 -144 -12 -15 -15 -17 -555 -2 -578 7 -12 35 -15 147
-15 l138 0 3 73 c2 53 0 72 -10 73 -7 0 -47 1 -88 2 l-75 2 -1 108 -1 107 215
0 215 0 -6 -221 -7 -221 -51 -59 c-28 -32 -64 -70 -81 -84 l-30 -25 -216 0
-217 0 -92 92 -93 93 0 370 0 370 87 87 88 88 220 0 c161 -1 224 -4 235 -13z
m1014 -74 l86 -87 0 -83 0 -83 -125 0 -125 0 0 28 c0 15 -3 37 -6 50 -6 22 -9
23 -138 20 l-131 -3 -3 -96 c-3 -93 -2 -97 20 -103 13 -3 96 -6 186 -6 l164 0
79 -78 79 -78 0 -158 0 -159 -86 -88 -86 -88 -217 -1 -217 -1 -91 93 -90 93 5
60 c2 33 7 62 9 65 5 5 55 5 181 2 l62 -2 0 -35 0 -35 134 0 134 0 5 38 c5 45
1 147 -7 160 -3 6 -84 10 -192 9 l-186 0 -70 70 -70 70 1 169 1 169 89 88 89
87 215 0 214 0 87 -87z"/>
<path d="M5629 9145 c-7 -50 -5 -94 4 -88 7 4 8 -1 3 -13 -7 -18 -6 -18 10 -2
16 15 16 18 0 33 -19 19 -21 32 -4 37 8 3 8 9 0 24 -6 10 -12 15 -13 9z"/>
<path d="M6415 8239 c-4 -6 -5 -12 -2 -15 2 -3 7 2 10 11 7 17 1 20 -8 4z"/>
<path d="M6366 8187 c2 -7 14 -19 27 -26 21 -13 21 -12 -2 13 -27 29 -33 32
-25 13z"/>
<path d="M6477 8025 c-4 -8 -3 -16 1 -19 4 -3 9 4 9 15 2 23 -3 25 -10 4z"/>
<path d="M6543 7995 c0 -11 4 -12 14 -4 7 6 13 13 13 15 0 2 -6 4 -13 4 -8 0
-14 -7 -14 -15z"/>
<path d="M3000 8712 c-152 -73 -184 -92 -182 -108 3 -17 37 -103 93 -232 23
-53 9 -56 226 49 110 53 163 84 168 98 8 27 -85 275 -105 279 -8 1 -98 -38
-200 -86z"/>
<path d="M1775 7888 c-11 -6 -56 -41 -100 -78 -44 -36 -113 -93 -152 -124 -40
-32 -73 -64 -73 -70 0 -11 129 -208 150 -229 8 -10 35 9 223 161 71 57 131
110 134 118 5 14 -95 190 -124 220 -17 17 -31 17 -58 2z"/>
<path d="M2089 7307 c-36 -28 -112 -87 -168 -130 -56 -43 -104 -84 -107 -92
-5 -13 115 -214 142 -236 17 -14 25 -9 159 100 184 149 214 176 214 195 1 27
-85 182 -112 201 -35 25 -58 18 -128 -38z"/>
<path d="M6570 7331 c5 -11 15 -23 21 -27 6 -3 3 5 -6 20 -20 30 -30 35 -15 7z"/>
<path d="M5077 7329 c-39 -9 -122 -48 -115 -54 2 -2 24 1 48 6 64 15 206 12
270 -5 l55 -14 -30 24 c-56 46 -146 62 -228 43z"/>
<path d="M5700 7331 c-24 -8 -131 -70 -120 -71 3 0 21 5 40 10 101 30 233 31
335 4 20 -5 20 -5 0 11 -50 40 -191 65 -255 46z"/>
<path d="M5220 7026 c0 -3 29 -42 65 -87 74 -92 92 -141 78 -206 l-10 -43 35
-6 c44 -9 172 2 185 15 7 7 7 14 0 23 -16 20 -25 75 -18 109 4 17 36 66 71
110 36 43 62 79 59 79 -9 0 -145 -113 -175 -145 -14 -14 -32 -45 -41 -68 l-16
-41 -7 35 c-4 24 -22 50 -59 85 -65 63 -167 148 -167 140z"/>
<path d="M4712 6961 c-9 -5 -1 -10 27 -15 57 -9 102 -52 150 -146 52 -99 75
-114 182 -114 65 -1 84 4 135 29 33 17 64 41 71 55 14 29 4 36 -27 20 -53 -28
-236 -20 -256 11 -3 5 7 4 21 -1 52 -20 59 -9 9 14 -28 13 -71 44 -95 69 -61
63 -105 87 -159 87 -25 0 -51 -4 -58 -9z"/>
<path d="M6075 6953 c-16 -8 -56 -40 -87 -70 -31 -29 -76 -63 -100 -74 -40
-19 -28 -21 16 -3 13 5 17 4 13 -3 -9 -14 -86 -33 -135 -33 -21 0 -62 7 -91
16 -29 8 -56 13 -59 10 -10 -11 33 -59 69 -78 80 -41 212 -42 266 -2 14 11 42
50 62 86 57 104 107 148 168 148 22 0 25 2 13 10 -23 15 -102 11 -135 -7z"/>
<path d="M3957 6809 c7 -7 15 -10 18 -7 3 3 -2 9 -12 12 -14 6 -15 5 -6 -5z"/>
<path d="M7382 6304 c54 -57 182 -245 221 -324 15 -30 36 -80 47 -110 l19 -55
1 67 c0 101 -17 162 -64 231 -42 61 -137 150 -226 209 l-45 31 47 -49z"/>
<path d="M7616 5525 c-9 -26 -7 -32 5 -12 6 10 9 21 6 23 -2 3 -7 -2 -11 -11z"/>
<path d="M3403 6272 c-97 -73 -178 -159 -203 -214 -11 -26 -21 -78 -24 -133
-6 -84 -5 -87 8 -55 51 131 163 310 249 398 34 34 59 62 55 62 -3 0 -42 -26
-85 -58z"/>
<path d="M4871 6197 c-49 -35 -221 -216 -221 -235 0 -4 109 93 237 211 83 76
76 87 -16 24z"/>
<path d="M6111 4798 c15 -29 49 -73 49 -64 0 8 -51 86 -57 86 -2 0 2 -10 8
-22z"/>
<path d="M5046 4783 c7 -18 54 -69 54 -58 0 3 12 -2 28 -11 l27 -16 -25 18
c-14 10 -40 33 -57 52 -20 20 -30 26 -27 15z"/>
<path d="M5829 4733 c-13 -16 -12 -17 4 -4 16 13 21 21 13 21 -2 0 -10 -8 -17
-17z"/>
<path d="M6200 4685 c13 -14 26 -25 28 -25 3 0 -5 11 -18 25 -13 14 -26 25
-28 25 -3 0 5 -11 18 -25z"/>
<path d="M6973 5963 c9 -2 23 -2 30 0 6 3 -1 5 -18 5 -16 0 -22 -2 -12 -5z"/>
<path d="M5990 5647 c102 -52 120 -59 120 -48 0 8 -139 74 -180 85 -14 3 13
-13 60 -37z"/>
<path d="M4920 5633 c-76 -39 -93 -44 -102 -32 -8 11 -9 10 -4 -4 3 -10 6 -21
6 -23 0 -14 41 2 106 41 40 25 78 45 83 45 6 0 13 5 16 10 12 19 -14 10 -105
-37z"/>
<path d="M7960 5310 c0 -5 5 -10 11 -10 5 0 7 5 4 10 -3 6 -8 10 -11 10 -2 0
-4 -4 -4 -10z"/>
<path d="M7740 5260 c-6 -11 -8 -20 -6 -20 3 0 10 9 16 20 6 11 8 20 6 20 -3
0 -10 -9 -16 -20z"/>
<path d="M3060 4076 c0 -2 8 -10 18 -17 15 -13 16 -12 3 4 -13 16 -21 21 -21
13z"/>
<path d="M3176 3051 c-4 -29 -5 -55 -2 -58 6 -7 19 83 14 99 -3 7 -8 -11 -12
-41z"/>
<path d="M3861 2979 c-6 -18 -11 -39 -10 -48 0 -9 7 4 14 29 16 51 13 67 -4
19z"/>
<path d="M2992 2942 c18 -33 34 -57 36 -52 4 12 -33 84 -53 100 -9 8 -2 -13
17 -48z"/>
<path d="M2590 2810 c0 -5 9 -10 20 -10 11 0 20 5 20 10 0 6 -9 10 -20 10 -11
0 -20 -4 -20 -10z"/>
<path d="M7783 4156 c-33 -38 -92 -128 -66 -101 22 23 114 145 110 145 -3 0
-23 -20 -44 -44z"/>
<path d="M8250 2816 c0 -10 9 -16 21 -16 24 0 21 23 -4 28 -10 2 -17 -3 -17
-12z"/>
<path d="M8452 2751 c61 -55 82 -108 76 -200 -4 -70 3 -76 17 -14 17 80 -40
205 -109 240 -26 13 -24 9 16 -26z"/>
<path d="M3560 4726 c0 -2 8 -10 18 -17 15 -13 16 -12 3 4 -13 16 -21 21 -21
13z"/>
<path d="M7480 4878 c-38 -35 -43 -41 -15 -20 37 28 83 73 74 72 -2 -1 -29
-24 -59 -52z"/>
<path d="M4006 4921 c-3 -5 8 -14 24 -20 33 -11 41 2 11 19 -24 12 -28 12 -35
1z"/>
<path d="M6870 4920 c-19 -12 -7 -22 21 -18 19 2 20 5 8 15 -9 7 -20 9 -29 3z"/>
<path d="M6754 4835 c-9 -22 0 -30 94 -91 48 -31 125 -82 172 -114 107 -71
115 -76 106 -62 -7 12 -228 184 -314 244 -41 29 -54 35 -58 23z"/>
<path d="M7492 4635 c0 -16 2 -22 5 -12 2 9 2 23 0 30 -3 6 -5 -1 -5 -18z"/>
<path d="M5892 3560 c-13 -11 -57 -38 -98 -60 -41 -23 -74 -44 -74 -46 0 -9
140 71 173 98 18 15 30 27 27 27 -3 0 -15 -8 -28 -19z"/>
<path d="M5509 3220 c-134 -18 -280 -125 -343 -250 -86 -173 -67 -364 54 -523
79 -105 163 -153 312 -178 272 -45 528 157 554 439 15 160 -76 342 -221 442
-83 57 -234 87 -356 70z m29 -123 l3 -47 -100 0 c-77 0 -101 3 -101 13 0 24
140 89 180 84 10 -2 16 -17 18 -50z m82 3 c0 -47 -2 -50 -25 -50 -14 0 -25 3
-26 8 -7 84 -5 92 23 92 27 0 28 -2 28 -50z m136 19 c30 -12 66 -31 81 -43
l25 -22 -32 -34 -32 -35 -27 33 c-24 28 -34 32 -74 32 l-47 0 0 51 c0 58 -2
58 106 18z m-426 -89 c0 -6 73 -10 199 -10 l199 0 31 -37 c17 -21 38 -47 48
-58 22 -24 25 -127 4 -147 -11 -11 -12 -5 -6 39 6 44 3 60 -17 99 -13 26 -38
57 -58 70 -34 23 -38 23 -213 16 l-177 -7 32 -39 c22 -27 34 -54 39 -90 11
-73 11 -296 0 -296 -4 0 -25 -29 -46 -65 -21 -36 -42 -65 -47 -65 -18 0 -6 31
37 89 l45 61 0 153 0 153 -46 44 c-51 50 -68 76 -59 90 8 13 35 13 35 0z m570
-25 c0 -7 -16 -25 -35 -39 -42 -32 -48 -15 -13 38 17 26 26 32 35 24 7 -6 13
-16 13 -23z m-587 -67 c46 -45 55 -59 58 -95 l5 -43 -93 0 c-51 0 -93 3 -93 8
0 26 56 182 65 182 2 0 28 -24 58 -52z m672 -57 c26 -78 25 -81 -55 -81 l-70
0 0 64 c0 60 2 66 32 91 l32 27 23 -28 c13 -16 30 -49 38 -73z m-438 33 c-3
-3 -12 -4 -19 -1 -8 3 -5 6 6 6 11 1 17 -2 13 -5z m167 -49 c4 -15 0 -37 -9
-55 l-16 -30 -94 0 c-92 0 -95 1 -95 23 0 14 3 18 8 10 10 -17 118 -27 157
-15 28 8 30 12 30 54 0 49 9 55 19 13z m-202 -5 c-2 -16 -6 -30 -8 -30 -2 0
-4 14 -4 30 0 17 4 30 8 30 5 0 7 -13 4 -30z m147 21 c9 -6 11 -18 7 -35 -5
-22 -12 -26 -45 -26 -22 0 -46 3 -55 6 -16 6 -22 45 -9 57 9 10 86 8 102 -2z
m-335 -117 c36 -5 46 -11 46 -25 0 -17 -9 -19 -90 -19 -81 0 -90 2 -90 18 0
10 3 22 7 25 8 9 66 9 127 1z m676 -19 c0 -24 -3 -25 -57 -25 -32 0 -68 -3
-80 -6 -19 -5 -23 -2 -23 18 0 14 3 28 7 31 3 4 39 7 80 7 71 0 73 -1 73 -25z
m-217 -15 c4 -17 2 -18 -14 -9 -22 11 -25 29 -5 29 7 0 16 -9 19 -20z m-83
-50 c11 -11 20 -32 19 -47 0 -27 -1 -26 -12 7 l-12 35 -82 3 -82 3 -7 -36
c-11 -61 -5 -65 93 -65 61 0 83 -3 73 -10 -8 -5 -54 -10 -101 -10 l-86 0 4 58
c6 85 3 82 93 82 67 0 83 -3 100 -20z m126 -89 c-3 -20 -19 -49 -38 -69 -40
-41 -110 -80 -116 -63 -2 6 -8 9 -13 5 -5 -3 -9 0 -9 5 0 6 12 11 28 11 35 0
98 42 117 80 8 16 15 55 16 87 l1 58 10 -40 c5 -22 7 -55 4 -74z m-492 93 c44
-6 46 -8 46 -38 0 -23 -14 -48 -51 -94 l-52 -63 -24 36 c-24 35 -43 82 -57
138 -6 27 -6 27 42 27 27 0 70 -3 96 -6z m669 -1 c8 -13 -32 -130 -49 -144
-13 -10 -20 -10 -42 3 -15 9 -33 27 -39 40 -14 25 -17 90 -6 101 9 10 131 9
136 0z m-329 -49 c12 -30 5 -34 -58 -34 -62 0 -63 0 -58 25 4 23 9 25 57 25
39 0 54 -4 59 -16z m240 -154 c-15 -15 -38 -4 -56 28 -27 47 -10 58 30 18 25
-25 33 -39 26 -46z m-70 -15 l27 -35 -48 -30 c-44 -28 -65 -36 -145 -56 -31
-7 -33 -1 -22 55 6 28 10 31 41 31 26 0 42 8 66 34 18 18 37 34 43 35 7 0 24
-15 38 -34z m-299 4 c5 -5 -29 -9 -89 -9 -78 0 -96 3 -88 13 12 14 161 11 177
-4z m91 -2 c4 -4 -11 -7 -34 -7 -23 0 -42 4 -42 9 0 11 65 9 76 -2z m-96 -82
l0 -46 -37 6 c-45 8 -136 49 -153 70 -11 13 1 15 89 15 l101 0 0 -45z m84 14
c10 -53 8 -59 -24 -59 -29 0 -30 2 -30 45 0 41 2 45 24 45 18 0 25 -7 30 -31z"/>
<path d="M1587 1643 c-4 -3 -7 -52 -7 -109 l0 -102 33 -6 c17 -3 73 -3 122 -1
69 4 93 9 103 22 16 22 16 175 0 191 -13 13 -239 18 -251 5z"/>
<path d="M2528 1643 c-25 -7 -30 -60 -26 -326 4 -289 -8 -270 152 -263 82 3
113 8 125 21 14 13 16 51 19 268 2 191 -1 258 -11 277 -12 24 -16 25 -127 26
-63 1 -123 0 -132 -3z"/>
<path d="M3593 1473 c-6 -21 -22 -78 -37 -127 -20 -67 -23 -91 -15 -97 7 -4
43 -7 81 -6 l70 1 -7 32 c-8 43 -65 217 -75 227 -4 5 -12 -9 -17 -30z"/>
<path d="M4467 1643 c-16 -4 -17 -25 -15 -295 l3 -290 50 -1 c147 -1 169 2
203 31 l32 28 0 234 -1 235 -29 33 -30 32 -97 -1 c-54 -1 -106 -3 -116 -6z"/>
<path d="M5803 1643 c-43 -4 -43 -4 -44 -46 -5 -200 -6 -442 -2 -484 l5 -53
110 0 c96 0 112 3 138 22 l30 22 0 246 0 247 -25 27 c-22 24 -30 26 -97 24
-40 -1 -92 -3 -115 -5z"/>
<path d="M6684 1640 c-21 -8 -22 -16 -29 -263 -6 -207 -5 -260 6 -283 l14 -29
121 -3 c105 -2 122 0 136 15 14 15 17 55 18 263 3 293 4 266 -20 290 -17 17
-33 20 -122 19 -57 0 -113 -4 -124 -9z"/>
</g>
</svg>
